<?xml version="1.0" encoding="utf-8"?>
<!-- Generator: Adobe Illustrator 23.0.2, SVG Export Plug-In . SVG Version: 6.00 Build 0)  -->
<svg version="1.1" id="Слой_1" xmlns="http://www.w3.org/2000/svg" xmlns:xlink="http://www.w3.org/1999/xlink" x="0px" y="0px"
	 viewBox="0 0 1366 768" style="enable-background:new 0 0 1366 768;" xml:space="preserve">
<style type="text/css">
	.st0{fill:#999999;}
	.st1{fill:#333333;}
</style>
<g>
	<g>
		<path class="st0" d="M27.91,2.46L1.12,48.49C-0.04,50.49,1.4,53,3.72,53h53.57c2.31,0,3.76-2.51,2.59-4.51L33.09,2.46
			C31.94,0.47,29.06,0.47,27.91,2.46z"/>
	</g>
	<g>
		<g>
			<path class="st1" d="M30.5,37L30.5,37c-1.66,0-3-1.34-3-3V19c0-1.66,1.34-3,3-3h0c1.66,0,3,1.34,3,3v15
				C33.5,35.66,32.16,37,30.5,37z"/>
		</g>
		<circle class="st1" cx="30.5" cy="43" r="3"/>
	</g>
</g>
</svg>
