<?xml version="1.0" encoding="utf-8"?>
<!-- Generator: Adobe Illustrator 23.0.2, SVG Export Plug-In . SVG Version: 6.00 Build 0)  -->
<svg version="1.1" id="Слой_1" xmlns="http://www.w3.org/2000/svg" xmlns:xlink="http://www.w3.org/1999/xlink" x="0px" y="0px"
	 viewBox="0 0 1366 768" style="enable-background:new 0 0 1366 768;" xml:space="preserve">
<style type="text/css">
	.st0{fill:#FFFFFF;}
	.st1{fill:#FF0000;}
</style>
<g>
	<g>
		<path class="st0" d="M3.72,50.5c-0.19,0-0.34-0.08-0.43-0.25c-0.1-0.17-0.1-0.33,0-0.5L30.07,3.71c0.1-0.17,0.24-0.25,0.43-0.25
			c0.19,0,0.34,0.08,0.43,0.25l26.78,46.03c0.1,0.17,0.1,0.33,0,0.5c-0.1,0.17-0.24,0.25-0.43,0.25H3.72z"/>
		<path class="st1" d="M32.23,4.97L32.23,4.97L32.23,4.97 M30.5,7.94L53.81,48H7.19L30.5,7.94 M30.5,0.97
			c-1.01,0-2.01,0.5-2.59,1.49L1.12,48.49C-0.04,50.49,1.4,53,3.72,53h53.57c2.31,0,3.76-2.51,2.59-4.51L33.09,2.46
			C32.51,1.46,31.51,0.97,30.5,0.97L30.5,0.97z"/>
	</g>
	<g>
		<g>
			<path d="M30.5,37L30.5,37c-1.66,0-3-1.34-3-3V19c0-1.66,1.34-3,3-3h0c1.66,0,3,1.34,3,3v15C33.5,35.66,32.16,37,30.5,37z"/>
		</g>
		<circle cx="30.5" cy="42" r="3"/>
	</g>
</g>
</svg>
